%TF.GenerationSoftware,KiCad,Pcbnew,(5.1.10)-1*%
%TF.CreationDate,2021-11-08T05:29:08+05:30*%
%TF.ProjectId,Flipboard Final,466c6970-626f-4617-9264-2046696e616c,rev?*%
%TF.SameCoordinates,Original*%
%TF.FileFunction,Soldermask,Top*%
%TF.FilePolarity,Negative*%
%FSLAX46Y46*%
G04 Gerber Fmt 4.6, Leading zero omitted, Abs format (unit mm)*
G04 Created by KiCad (PCBNEW (5.1.10)-1) date 2021-11-08 05:29:08*
%MOMM*%
%LPD*%
G01*
G04 APERTURE LIST*
%ADD10R,1.600000X1.600000*%
%ADD11C,1.600000*%
%ADD12R,1.800000X1.800000*%
%ADD13C,1.800000*%
%ADD14C,1.650000*%
%ADD15R,1.650000X1.650000*%
%ADD16C,3.000000*%
%ADD17C,6.000000*%
%ADD18R,1.700000X1.700000*%
%ADD19O,1.700000X1.700000*%
%ADD20R,2.600000X2.600000*%
%ADD21C,2.600000*%
%ADD22O,1.600000X1.600000*%
%ADD23R,1.498000X1.498000*%
%ADD24C,1.498000*%
%ADD25R,2.000000X3.800000*%
%ADD26R,2.000000X1.500000*%
%ADD27R,1.905000X2.000000*%
%ADD28O,1.905000X2.000000*%
%ADD29R,2.500000X1.000000*%
%ADD30R,1.000000X1.800000*%
G04 APERTURE END LIST*
D10*
%TO.C,C1*%
X-78740000Y-17145000D03*
D11*
X-76240000Y-17145000D03*
%TD*%
%TO.C,C2*%
X-95290000Y-18415000D03*
D10*
X-97790000Y-18415000D03*
%TD*%
%TO.C,C3*%
X-97155000Y-26670000D03*
D11*
X-94655000Y-26670000D03*
%TD*%
%TO.C,C4*%
X-94655000Y-32385000D03*
D10*
X-97155000Y-32385000D03*
%TD*%
D12*
%TO.C,D1*%
X-113030000Y3810000D03*
D13*
X-110490000Y3810000D03*
%TD*%
D14*
%TO.C,D3*%
X-65185000Y-22860000D03*
D15*
X-75785000Y-22860000D03*
%TD*%
D14*
%TO.C,D5*%
X-65185000Y-30480000D03*
D15*
X-75785000Y-30480000D03*
%TD*%
%TO.C,D7*%
X-75785000Y-26670000D03*
D14*
X-65185000Y-26670000D03*
%TD*%
D15*
%TO.C,D9*%
X-75785000Y-34290000D03*
D14*
X-65185000Y-34290000D03*
%TD*%
%TO.C,D10*%
X-102015000Y-22225000D03*
D15*
X-112615000Y-22225000D03*
%TD*%
D14*
%TO.C,D11*%
X-102015000Y-33655000D03*
D15*
X-112615000Y-33655000D03*
%TD*%
%TO.C,D12*%
X-112615000Y-29845000D03*
D14*
X-102015000Y-29845000D03*
%TD*%
D15*
%TO.C,D13*%
X-112615000Y-26035000D03*
D14*
X-102015000Y-26035000D03*
%TD*%
D16*
%TO.C,H1*%
X-66675000Y-43180000D03*
%TD*%
%TO.C,H2*%
X-111760000Y10795000D03*
%TD*%
%TO.C,H3*%
X-111760000Y-43180000D03*
%TD*%
%TO.C,H4*%
X-72390000Y10160000D03*
%TD*%
D17*
%TO.C,J1*%
X-103720000Y-41275000D03*
G36*
G01*
X-93520000Y-39775000D02*
X-93520000Y-42775000D01*
G75*
G02*
X-95020000Y-44275000I-1500000J0D01*
G01*
X-98020000Y-44275000D01*
G75*
G02*
X-99520000Y-42775000I0J1500000D01*
G01*
X-99520000Y-39775000D01*
G75*
G02*
X-98020000Y-38275000I1500000J0D01*
G01*
X-95020000Y-38275000D01*
G75*
G02*
X-93520000Y-39775000I0J-1500000D01*
G01*
G37*
%TD*%
D18*
%TO.C,J2*%
X-103505000Y8255000D03*
D19*
X-100965000Y8255000D03*
X-98425000Y8255000D03*
%TD*%
D20*
%TO.C,J3*%
X-108585000Y-16510000D03*
D21*
X-108585000Y-11430000D03*
%TD*%
%TO.C,J4*%
X-68580000Y-16510000D03*
D20*
X-68580000Y-11430000D03*
%TD*%
D18*
%TO.C,J5*%
X-65405000Y7620000D03*
D19*
X-65405000Y5080000D03*
X-65405000Y2540000D03*
X-65405000Y0D03*
X-65405000Y-2540000D03*
%TD*%
D22*
%TO.C,R1*%
X-100330000Y2540000D03*
D11*
X-100330000Y-5080000D03*
%TD*%
%TO.C,R2*%
X-70485000Y1270000D03*
D22*
X-70485000Y-6350000D03*
%TD*%
D23*
%TO.C,S1*%
X-71045000Y-44795000D03*
D24*
X-77545000Y-44795000D03*
X-71045000Y-40295000D03*
X-77545000Y-40295000D03*
%TD*%
D25*
%TO.C,U1*%
X-106705000Y-3175000D03*
D26*
X-113005000Y-3175000D03*
X-113005000Y-5475000D03*
X-113005000Y-875000D03*
%TD*%
D27*
%TO.C,U2*%
X-83820000Y-41275000D03*
D28*
X-86360000Y-41275000D03*
X-88900000Y-41275000D03*
%TD*%
D10*
%TO.C,U3*%
X-82550000Y-33655000D03*
D22*
X-90170000Y-15875000D03*
X-82550000Y-31115000D03*
X-90170000Y-18415000D03*
X-82550000Y-28575000D03*
X-90170000Y-20955000D03*
X-82550000Y-26035000D03*
X-90170000Y-23495000D03*
X-82550000Y-23495000D03*
X-90170000Y-26035000D03*
X-82550000Y-20955000D03*
X-90170000Y-28575000D03*
X-82550000Y-18415000D03*
X-90170000Y-31115000D03*
X-82550000Y-15875000D03*
X-90170000Y-33655000D03*
%TD*%
D29*
%TO.C,U4*%
X-78760000Y4135000D03*
X-78760000Y2135000D03*
X-78760000Y135000D03*
X-78760000Y-1865000D03*
X-78760000Y-3865000D03*
X-78760000Y-5865000D03*
X-78760000Y-7865000D03*
X-78760000Y-9865000D03*
D30*
X-81360000Y-11365000D03*
X-83360000Y-11365000D03*
X-85360000Y-11365000D03*
X-87360000Y-11365000D03*
X-89360000Y-11365000D03*
X-91360000Y-11365000D03*
D29*
X-93960000Y-9865000D03*
X-93960000Y-7865000D03*
X-93960000Y-5865000D03*
X-93960000Y-3865000D03*
X-93960000Y-1865000D03*
X-93960000Y135000D03*
X-93960000Y2135000D03*
X-93960000Y4135000D03*
%TD*%
M02*
