M48
; DRILL file {KiCad (5.1.10)-1} date 11/08/21 05:36:00
; FORMAT={-:-/ absolute / inch / decimal}
; #@! TF.CreationDate,2021-11-08T05:36:00+05:30
; #@! TF.GenerationSoftware,Kicad,Pcbnew,(5.1.10)-1
; #@! TF.FileFunction,Plated,1,2,PTH
FMAT,2
INCH
T1C0.0315
T2C0.0354
T3C0.0390
T4C0.0394
T5C0.0433
T6C0.0512
T7C0.1772
%
G90
G05
T1
X-3.95Y0.1
X-3.95Y-0.2
X-3.85Y-0.725
X-3.825Y-1.05
X-3.825Y-1.275
X-3.7516Y-0.725
X-3.7266Y-1.05
X-3.7266Y-1.275
X-3.55Y-0.625
X-3.55Y-0.725
X-3.55Y-0.825
X-3.55Y-0.925
X-3.55Y-1.025
X-3.55Y-1.125
X-3.55Y-1.225
X-3.55Y-1.325
X-3.25Y-0.625
X-3.25Y-0.725
X-3.25Y-0.825
X-3.25Y-0.925
X-3.25Y-1.025
X-3.25Y-1.125
X-3.25Y-1.225
X-3.25Y-1.325
X-3.1Y-0.675
X-3.0016Y-0.675
X-2.775Y0.05
X-2.775Y-0.25
T2
X-4.45Y0.15
X-4.35Y0.15
T3
X-3.053Y-1.5864
X-3.053Y-1.7636
X-2.797Y-1.5864
X-2.797Y-1.7636
T4
X-4.075Y0.325
X-3.975Y0.325
X-3.875Y0.325
X-2.575Y0.3
X-2.575Y0.2
X-2.575Y0.1
X-2.575Y0.0
X-2.575Y-0.1
T5
X-4.4337Y-0.875
X-4.4337Y-1.025
X-4.4337Y-1.175
X-4.4337Y-1.325
X-4.0163Y-0.875
X-4.0163Y-1.025
X-4.0163Y-1.175
X-4.0163Y-1.325
X-3.5Y-1.625
X-3.4Y-1.625
X-3.3Y-1.625
X-2.9837Y-0.9
X-2.9837Y-1.05
X-2.9837Y-1.2
X-2.9837Y-1.35
X-2.5663Y-0.9
X-2.5663Y-1.05
X-2.5663Y-1.2
X-2.5663Y-1.35
T6
X-4.275Y-0.45
X-4.275Y-0.65
X-2.7Y-0.45
X-2.7Y-0.65
T7
X-4.0835Y-1.625
X-3.8Y-1.625
T0
M30
