%TF.GenerationSoftware,KiCad,Pcbnew,(5.1.10)-1*%
%TF.CreationDate,2021-11-08T05:29:07+05:30*%
%TF.ProjectId,Flipboard Final,466c6970-626f-4617-9264-2046696e616c,rev?*%
%TF.SameCoordinates,Original*%
%TF.FileFunction,Copper,L2,Bot*%
%TF.FilePolarity,Positive*%
%FSLAX46Y46*%
G04 Gerber Fmt 4.6, Leading zero omitted, Abs format (unit mm)*
G04 Created by KiCad (PCBNEW (5.1.10)-1) date 2021-11-08 05:29:07*
%MOMM*%
%LPD*%
G01*
G04 APERTURE LIST*
%TA.AperFunction,ComponentPad*%
%ADD10R,1.600000X1.600000*%
%TD*%
%TA.AperFunction,ComponentPad*%
%ADD11C,1.600000*%
%TD*%
%TA.AperFunction,ComponentPad*%
%ADD12R,1.800000X1.800000*%
%TD*%
%TA.AperFunction,ComponentPad*%
%ADD13C,1.800000*%
%TD*%
%TA.AperFunction,ComponentPad*%
%ADD14C,1.650000*%
%TD*%
%TA.AperFunction,ComponentPad*%
%ADD15R,1.650000X1.650000*%
%TD*%
%TA.AperFunction,ComponentPad*%
%ADD16C,6.000000*%
%TD*%
%TA.AperFunction,ComponentPad*%
%ADD17R,1.700000X1.700000*%
%TD*%
%TA.AperFunction,ComponentPad*%
%ADD18O,1.700000X1.700000*%
%TD*%
%TA.AperFunction,ComponentPad*%
%ADD19R,2.600000X2.600000*%
%TD*%
%TA.AperFunction,ComponentPad*%
%ADD20C,2.600000*%
%TD*%
%TA.AperFunction,ComponentPad*%
%ADD21O,1.600000X1.600000*%
%TD*%
%TA.AperFunction,ComponentPad*%
%ADD22R,1.498000X1.498000*%
%TD*%
%TA.AperFunction,ComponentPad*%
%ADD23C,1.498000*%
%TD*%
%TA.AperFunction,ComponentPad*%
%ADD24R,1.905000X2.000000*%
%TD*%
%TA.AperFunction,ComponentPad*%
%ADD25O,1.905000X2.000000*%
%TD*%
%TA.AperFunction,Conductor*%
%ADD26C,0.250000*%
%TD*%
G04 APERTURE END LIST*
D10*
%TO.P,C1,1*%
%TO.N,Net-(C1-Pad1)*%
X-78740000Y-17145000D03*
D11*
%TO.P,C1,2*%
%TO.N,Net-(C1-Pad2)*%
X-76240000Y-17145000D03*
%TD*%
%TO.P,C2,2*%
%TO.N,Net-(C1-Pad2)*%
X-95290000Y-18415000D03*
D10*
%TO.P,C2,1*%
%TO.N,Net-(C1-Pad1)*%
X-97790000Y-18415000D03*
%TD*%
%TO.P,C3,1*%
%TO.N,Net-(C3-Pad1)*%
X-97155000Y-26670000D03*
D11*
%TO.P,C3,2*%
%TO.N,Net-(C1-Pad2)*%
X-94655000Y-26670000D03*
%TD*%
%TO.P,C4,2*%
%TO.N,Net-(C1-Pad2)*%
X-94655000Y-32385000D03*
D10*
%TO.P,C4,1*%
%TO.N,Net-(C4-Pad1)*%
X-97155000Y-32385000D03*
%TD*%
D12*
%TO.P,D1,1*%
%TO.N,Net-(C1-Pad2)*%
X-113030000Y3810000D03*
D13*
%TO.P,D1,2*%
%TO.N,Net-(C3-Pad1)*%
X-110490000Y3810000D03*
%TD*%
D14*
%TO.P,D3,A*%
%TO.N,Net-(D3-PadA)*%
X-65185000Y-22860000D03*
D15*
%TO.P,D3,C*%
%TO.N,Net-(C1-Pad1)*%
X-75785000Y-22860000D03*
%TD*%
D14*
%TO.P,D5,A*%
%TO.N,Net-(C1-Pad2)*%
X-65185000Y-30480000D03*
D15*
%TO.P,D5,C*%
%TO.N,Net-(D3-PadA)*%
X-75785000Y-30480000D03*
%TD*%
%TO.P,D7,C*%
%TO.N,Net-(C1-Pad1)*%
X-75785000Y-26670000D03*
D14*
%TO.P,D7,A*%
%TO.N,Net-(D7-PadA)*%
X-65185000Y-26670000D03*
%TD*%
D15*
%TO.P,D9,C*%
%TO.N,Net-(D7-PadA)*%
X-75785000Y-34290000D03*
D14*
%TO.P,D9,A*%
%TO.N,Net-(C1-Pad2)*%
X-65185000Y-34290000D03*
%TD*%
%TO.P,D10,A*%
%TO.N,Net-(D10-PadA)*%
X-102015000Y-22225000D03*
D15*
%TO.P,D10,C*%
%TO.N,Net-(C1-Pad1)*%
X-112615000Y-22225000D03*
%TD*%
D14*
%TO.P,D11,A*%
%TO.N,Net-(C1-Pad2)*%
X-102015000Y-33655000D03*
D15*
%TO.P,D11,C*%
%TO.N,Net-(D10-PadA)*%
X-112615000Y-33655000D03*
%TD*%
%TO.P,D12,C*%
%TO.N,Net-(D12-PadC)*%
X-112615000Y-29845000D03*
D14*
%TO.P,D12,A*%
%TO.N,Net-(C1-Pad2)*%
X-102015000Y-29845000D03*
%TD*%
D15*
%TO.P,D13,C*%
%TO.N,Net-(C1-Pad1)*%
X-112615000Y-26035000D03*
D14*
%TO.P,D13,A*%
%TO.N,Net-(D12-PadC)*%
X-102015000Y-26035000D03*
%TD*%
D16*
%TO.P,J1,2*%
%TO.N,Net-(J1-Pad2)*%
X-103720000Y-41275000D03*
%TO.P,J1,1*%
%TO.N,Net-(C1-Pad2)*%
%TA.AperFunction,ComponentPad*%
G36*
G01*
X-93520000Y-39775000D02*
X-93520000Y-42775000D01*
G75*
G02*
X-95020000Y-44275000I-1500000J0D01*
G01*
X-98020000Y-44275000D01*
G75*
G02*
X-99520000Y-42775000I0J1500000D01*
G01*
X-99520000Y-39775000D01*
G75*
G02*
X-98020000Y-38275000I1500000J0D01*
G01*
X-95020000Y-38275000D01*
G75*
G02*
X-93520000Y-39775000I0J-1500000D01*
G01*
G37*
%TD.AperFunction*%
%TD*%
D17*
%TO.P,J2,1*%
%TO.N,Net-(C1-Pad2)*%
X-103505000Y8255000D03*
D18*
%TO.P,J2,2*%
%TO.N,Net-(C4-Pad1)*%
X-100965000Y8255000D03*
%TO.P,J2,3*%
%TO.N,Net-(J2-Pad3)*%
X-98425000Y8255000D03*
%TD*%
D19*
%TO.P,J3,1*%
%TO.N,Net-(D3-PadA)*%
X-108585000Y-16510000D03*
D20*
%TO.P,J3,2*%
%TO.N,Net-(D7-PadA)*%
X-108585000Y-11430000D03*
%TD*%
%TO.P,J4,2*%
%TO.N,Net-(D12-PadC)*%
X-68580000Y-16510000D03*
D19*
%TO.P,J4,1*%
%TO.N,Net-(D10-PadA)*%
X-68580000Y-11430000D03*
%TD*%
D17*
%TO.P,J5,1*%
%TO.N,Net-(J5-Pad1)*%
X-65405000Y7620000D03*
D18*
%TO.P,J5,2*%
%TO.N,Net-(J5-Pad2)*%
X-65405000Y5080000D03*
%TO.P,J5,3*%
%TO.N,Net-(J5-Pad3)*%
X-65405000Y2540000D03*
%TO.P,J5,4*%
%TO.N,Net-(J5-Pad4)*%
X-65405000Y0D03*
%TO.P,J5,5*%
%TO.N,Net-(C1-Pad2)*%
X-65405000Y-2540000D03*
%TD*%
D21*
%TO.P,R1,2*%
%TO.N,Net-(R1-Pad2)*%
X-100330000Y2540000D03*
D11*
%TO.P,R1,1*%
%TO.N,Net-(C3-Pad1)*%
X-100330000Y-5080000D03*
%TD*%
%TO.P,R2,1*%
%TO.N,Net-(R2-Pad1)*%
X-70485000Y1270000D03*
D21*
%TO.P,R2,2*%
%TO.N,Net-(C1-Pad2)*%
X-70485000Y-6350000D03*
%TD*%
D22*
%TO.P,S1,1*%
%TO.N,Net-(J1-Pad2)*%
X-71045000Y-44795000D03*
D23*
%TO.P,S1,3*%
%TO.N,Net-(C1-Pad1)*%
X-77545000Y-44795000D03*
%TO.P,S1,2*%
%TO.N,Net-(S1-Pad2)*%
X-71045000Y-40295000D03*
%TO.P,S1,4*%
%TO.N,Net-(S1-Pad4)*%
X-77545000Y-40295000D03*
%TD*%
D24*
%TO.P,U2,1*%
%TO.N,Net-(C1-Pad1)*%
X-83820000Y-41275000D03*
D25*
%TO.P,U2,2*%
%TO.N,Net-(C1-Pad2)*%
X-86360000Y-41275000D03*
%TO.P,U2,3*%
%TO.N,Net-(C4-Pad1)*%
X-88900000Y-41275000D03*
%TD*%
D10*
%TO.P,U3,1*%
%TO.N,Net-(U3-Pad1)*%
X-82550000Y-33655000D03*
D21*
%TO.P,U3,9*%
%TO.N,Net-(U3-Pad9)*%
X-90170000Y-15875000D03*
%TO.P,U3,2*%
%TO.N,Net-(U3-Pad2)*%
X-82550000Y-31115000D03*
%TO.P,U3,10*%
%TO.N,Net-(J5-Pad3)*%
X-90170000Y-18415000D03*
%TO.P,U3,3*%
%TO.N,Net-(D3-PadA)*%
X-82550000Y-28575000D03*
%TO.P,U3,11*%
%TO.N,Net-(D10-PadA)*%
X-90170000Y-20955000D03*
%TO.P,U3,4*%
%TO.N,Net-(C1-Pad2)*%
X-82550000Y-26035000D03*
%TO.P,U3,12*%
X-90170000Y-23495000D03*
%TO.P,U3,5*%
X-82550000Y-23495000D03*
%TO.P,U3,13*%
X-90170000Y-26035000D03*
%TO.P,U3,6*%
%TO.N,Net-(D7-PadA)*%
X-82550000Y-20955000D03*
%TO.P,U3,14*%
%TO.N,Net-(D12-PadC)*%
X-90170000Y-28575000D03*
%TO.P,U3,7*%
%TO.N,Net-(U3-Pad7)*%
X-82550000Y-18415000D03*
%TO.P,U3,15*%
%TO.N,Net-(U3-Pad15)*%
X-90170000Y-31115000D03*
%TO.P,U3,8*%
%TO.N,Net-(C1-Pad1)*%
X-82550000Y-15875000D03*
%TO.P,U3,16*%
%TO.N,Net-(C4-Pad1)*%
X-90170000Y-33655000D03*
%TD*%
D26*
%TO.N,Net-(C1-Pad1)*%
X-82550000Y-15875000D02*
X-83675300Y-15875000D01*
X-83011600Y-39141300D02*
X-83820000Y-39949700D01*
X-75785000Y-27820300D02*
X-74634600Y-28970700D01*
X-74634600Y-28970700D02*
X-74634600Y-31500700D01*
X-74634600Y-31500700D02*
X-76230300Y-33096400D01*
X-76230300Y-33096400D02*
X-76966700Y-33096400D01*
X-76966700Y-33096400D02*
X-83011600Y-39141300D01*
X-83011600Y-39141300D02*
X-89767900Y-32385000D01*
X-89767900Y-32385000D02*
X-91550700Y-32385000D01*
X-91550700Y-32385000D02*
X-92676100Y-31259600D01*
X-92676100Y-31259600D02*
X-98735500Y-31259600D01*
X-98735500Y-31259600D02*
X-101816800Y-28178300D01*
X-101816800Y-28178300D02*
X-109321400Y-28178300D01*
X-109321400Y-28178300D02*
X-111464700Y-26035000D01*
X-112615000Y-26035000D02*
X-111464700Y-26035000D01*
X-83820000Y-41275000D02*
X-83820000Y-39949700D01*
X-75785000Y-26670000D02*
X-75785000Y-27820300D01*
X-97790000Y-18415000D02*
X-96664700Y-18415000D01*
X-83675300Y-15875000D02*
X-87340600Y-19540300D01*
X-87340600Y-19540300D02*
X-95820800Y-19540300D01*
X-95820800Y-19540300D02*
X-96664700Y-18696400D01*
X-96664700Y-18696400D02*
X-96664700Y-18415000D01*
X-79865300Y-17145000D02*
X-81135300Y-15875000D01*
X-81135300Y-15875000D02*
X-82550000Y-15875000D01*
X-78740000Y-17145000D02*
X-79865300Y-17145000D01*
%TO.N,Net-(C1-Pad2)*%
X-82550000Y-23495000D02*
X-81424700Y-23495000D01*
X-76240000Y-17145000D02*
X-76240000Y-18310300D01*
X-76240000Y-18310300D02*
X-81424700Y-23495000D01*
X-113030000Y3810000D02*
X-111804700Y3810000D01*
X-111804700Y3810000D02*
X-111804700Y4269500D01*
X-111804700Y4269500D02*
X-108994500Y7079700D01*
X-108994500Y7079700D02*
X-103505000Y7079700D01*
X-103505000Y8255000D02*
X-103505000Y7079700D01*
X-95290000Y-18415000D02*
X-95290000Y-841500D01*
X-95290000Y-841500D02*
X-103211200Y7079700D01*
X-103211200Y7079700D02*
X-103505000Y7079700D01*
X-102015000Y-29845000D02*
X-102015000Y-33655000D01*
X-96520000Y-41275000D02*
X-95192300Y-39947300D01*
X-95192300Y-39947300D02*
X-87687700Y-39947300D01*
X-87687700Y-39947300D02*
X-86360000Y-41275000D01*
X-90170000Y-26035000D02*
X-91295300Y-26035000D01*
X-94655000Y-26670000D02*
X-91930300Y-26670000D01*
X-91930300Y-26670000D02*
X-91295300Y-26035000D01*
X-70485000Y-6350000D02*
X-69359700Y-6350000D01*
X-65405000Y-2540000D02*
X-66580300Y-2540000D01*
X-69359700Y-6350000D02*
X-69359700Y-5319400D01*
X-69359700Y-5319400D02*
X-66580300Y-2540000D01*
X-82550000Y-26035000D02*
X-90170000Y-26035000D01*
%TO.N,Net-(C3-Pad1)*%
X-100330000Y-5080000D02*
X-101600000Y-5080000D01*
X-101600000Y-5080000D02*
X-110490000Y3810000D01*
%TO.N,Net-(C4-Pad1)*%
X-97155000Y-32385000D02*
X-96029700Y-32385000D01*
X-90170000Y-33655000D02*
X-95041000Y-33655000D01*
X-95041000Y-33655000D02*
X-96029700Y-32666300D01*
X-96029700Y-32666300D02*
X-96029700Y-32385000D01*
%TO.N,Net-(D3-PadA)*%
X-83675300Y-28575000D02*
X-84800800Y-29700500D01*
X-84800800Y-29700500D02*
X-99339400Y-29700500D01*
X-99339400Y-29700500D02*
X-101471200Y-27568700D01*
X-101471200Y-27568700D02*
X-102108100Y-27568700D01*
X-102108100Y-27568700D02*
X-108585000Y-21091800D01*
X-108585000Y-21091800D02*
X-108585000Y-16510000D01*
X-82550000Y-28575000D02*
X-83675300Y-28575000D01*
X-82550000Y-28575000D02*
X-78840300Y-28575000D01*
X-78840300Y-28575000D02*
X-76935300Y-30480000D01*
X-75785000Y-30480000D02*
X-76935300Y-30480000D01*
%TO.N,Net-(D7-PadA)*%
X-82550000Y-20955000D02*
X-83675300Y-20955000D01*
X-83675300Y-20955000D02*
X-84800600Y-22080300D01*
X-84800600Y-22080300D02*
X-99687200Y-22080300D01*
X-99687200Y-22080300D02*
X-100994800Y-23387900D01*
X-100994800Y-23387900D02*
X-102537200Y-23387900D01*
X-102537200Y-23387900D02*
X-105130400Y-20794700D01*
X-105130400Y-20794700D02*
X-105130400Y-14884600D01*
X-105130400Y-14884600D02*
X-108585000Y-11430000D01*
X-75785000Y-34290000D02*
X-74634700Y-34290000D01*
X-74634700Y-34290000D02*
X-67014700Y-26670000D01*
X-67014700Y-26670000D02*
X-65185000Y-26670000D01*
%TO.N,Net-(D10-PadA)*%
X-90170000Y-20955000D02*
X-84350200Y-20955000D01*
X-84350200Y-20955000D02*
X-83080200Y-19685000D01*
X-83080200Y-19685000D02*
X-79168800Y-19685000D01*
X-79168800Y-19685000D02*
X-77556000Y-18072200D01*
X-77556000Y-18072200D02*
X-77556000Y-16839600D01*
X-77556000Y-16839600D02*
X-72146400Y-11430000D01*
X-72146400Y-11430000D02*
X-68580000Y-11430000D01*
X-102015000Y-22225000D02*
X-100745000Y-20955000D01*
X-100745000Y-20955000D02*
X-90170000Y-20955000D01*
%TO.N,Net-(D12-PadC)*%
X-90170000Y-28575000D02*
X-89044700Y-28575000D01*
X-89044700Y-28575000D02*
X-87919400Y-27449700D01*
X-87919400Y-27449700D02*
X-82326900Y-27449700D01*
X-82326900Y-27449700D02*
X-78128200Y-23251000D01*
X-78128200Y-23251000D02*
X-78128200Y-23058200D01*
X-78128200Y-23058200D02*
X-71580000Y-16510000D01*
X-71580000Y-16510000D02*
X-68580000Y-16510000D01*
X-102015000Y-26035000D02*
X-99475000Y-28575000D01*
X-99475000Y-28575000D02*
X-90170000Y-28575000D01*
%TO.N,Net-(J1-Pad2)*%
X-71045000Y-44795000D02*
X-72119300Y-44795000D01*
X-72119300Y-44795000D02*
X-73242900Y-43671400D01*
X-73242900Y-43671400D02*
X-85435900Y-43671400D01*
X-85435900Y-43671400D02*
X-86391900Y-44627400D01*
X-86391900Y-44627400D02*
X-100367600Y-44627400D01*
X-100367600Y-44627400D02*
X-103720000Y-41275000D01*
%TO.N,Net-(J5-Pad3)*%
X-90170000Y-18415000D02*
X-89044700Y-18415000D01*
X-65405000Y2540000D02*
X-66580300Y2540000D01*
X-66580300Y2540000D02*
X-87535300Y-18415000D01*
X-87535300Y-18415000D02*
X-89044700Y-18415000D01*
%TD*%
M02*
