%TF.GenerationSoftware,KiCad,Pcbnew,(5.1.10)-1*%
%TF.CreationDate,2021-11-08T05:29:07+05:30*%
%TF.ProjectId,Flipboard Final,466c6970-626f-4617-9264-2046696e616c,rev?*%
%TF.SameCoordinates,Original*%
%TF.FileFunction,Copper,L1,Top*%
%TF.FilePolarity,Positive*%
%FSLAX46Y46*%
G04 Gerber Fmt 4.6, Leading zero omitted, Abs format (unit mm)*
G04 Created by KiCad (PCBNEW (5.1.10)-1) date 2021-11-08 05:29:07*
%MOMM*%
%LPD*%
G01*
G04 APERTURE LIST*
%TA.AperFunction,ComponentPad*%
%ADD10R,1.600000X1.600000*%
%TD*%
%TA.AperFunction,ComponentPad*%
%ADD11C,1.600000*%
%TD*%
%TA.AperFunction,ComponentPad*%
%ADD12R,1.800000X1.800000*%
%TD*%
%TA.AperFunction,ComponentPad*%
%ADD13C,1.800000*%
%TD*%
%TA.AperFunction,ComponentPad*%
%ADD14C,1.650000*%
%TD*%
%TA.AperFunction,ComponentPad*%
%ADD15R,1.650000X1.650000*%
%TD*%
%TA.AperFunction,ComponentPad*%
%ADD16C,6.000000*%
%TD*%
%TA.AperFunction,ComponentPad*%
%ADD17R,1.700000X1.700000*%
%TD*%
%TA.AperFunction,ComponentPad*%
%ADD18O,1.700000X1.700000*%
%TD*%
%TA.AperFunction,ComponentPad*%
%ADD19R,2.600000X2.600000*%
%TD*%
%TA.AperFunction,ComponentPad*%
%ADD20C,2.600000*%
%TD*%
%TA.AperFunction,ComponentPad*%
%ADD21O,1.600000X1.600000*%
%TD*%
%TA.AperFunction,ComponentPad*%
%ADD22R,1.498000X1.498000*%
%TD*%
%TA.AperFunction,ComponentPad*%
%ADD23C,1.498000*%
%TD*%
%TA.AperFunction,SMDPad,CuDef*%
%ADD24R,2.000000X3.800000*%
%TD*%
%TA.AperFunction,SMDPad,CuDef*%
%ADD25R,2.000000X1.500000*%
%TD*%
%TA.AperFunction,ComponentPad*%
%ADD26R,1.905000X2.000000*%
%TD*%
%TA.AperFunction,ComponentPad*%
%ADD27O,1.905000X2.000000*%
%TD*%
%TA.AperFunction,SMDPad,CuDef*%
%ADD28R,2.500000X1.000000*%
%TD*%
%TA.AperFunction,SMDPad,CuDef*%
%ADD29R,1.000000X1.800000*%
%TD*%
%TA.AperFunction,Conductor*%
%ADD30C,0.250000*%
%TD*%
G04 APERTURE END LIST*
D10*
%TO.P,C1,1*%
%TO.N,Net-(C1-Pad1)*%
X-78740000Y-17145000D03*
D11*
%TO.P,C1,2*%
%TO.N,Net-(C1-Pad2)*%
X-76240000Y-17145000D03*
%TD*%
%TO.P,C2,2*%
%TO.N,Net-(C1-Pad2)*%
X-95290000Y-18415000D03*
D10*
%TO.P,C2,1*%
%TO.N,Net-(C1-Pad1)*%
X-97790000Y-18415000D03*
%TD*%
%TO.P,C3,1*%
%TO.N,Net-(C3-Pad1)*%
X-97155000Y-26670000D03*
D11*
%TO.P,C3,2*%
%TO.N,Net-(C1-Pad2)*%
X-94655000Y-26670000D03*
%TD*%
%TO.P,C4,2*%
%TO.N,Net-(C1-Pad2)*%
X-94655000Y-32385000D03*
D10*
%TO.P,C4,1*%
%TO.N,Net-(C4-Pad1)*%
X-97155000Y-32385000D03*
%TD*%
D12*
%TO.P,D1,1*%
%TO.N,Net-(C1-Pad2)*%
X-113030000Y3810000D03*
D13*
%TO.P,D1,2*%
%TO.N,Net-(C3-Pad1)*%
X-110490000Y3810000D03*
%TD*%
D14*
%TO.P,D3,A*%
%TO.N,Net-(D3-PadA)*%
X-65185000Y-22860000D03*
D15*
%TO.P,D3,C*%
%TO.N,Net-(C1-Pad1)*%
X-75785000Y-22860000D03*
%TD*%
D14*
%TO.P,D5,A*%
%TO.N,Net-(C1-Pad2)*%
X-65185000Y-30480000D03*
D15*
%TO.P,D5,C*%
%TO.N,Net-(D3-PadA)*%
X-75785000Y-30480000D03*
%TD*%
%TO.P,D7,C*%
%TO.N,Net-(C1-Pad1)*%
X-75785000Y-26670000D03*
D14*
%TO.P,D7,A*%
%TO.N,Net-(D7-PadA)*%
X-65185000Y-26670000D03*
%TD*%
D15*
%TO.P,D9,C*%
%TO.N,Net-(D7-PadA)*%
X-75785000Y-34290000D03*
D14*
%TO.P,D9,A*%
%TO.N,Net-(C1-Pad2)*%
X-65185000Y-34290000D03*
%TD*%
%TO.P,D10,A*%
%TO.N,Net-(D10-PadA)*%
X-102015000Y-22225000D03*
D15*
%TO.P,D10,C*%
%TO.N,Net-(C1-Pad1)*%
X-112615000Y-22225000D03*
%TD*%
D14*
%TO.P,D11,A*%
%TO.N,Net-(C1-Pad2)*%
X-102015000Y-33655000D03*
D15*
%TO.P,D11,C*%
%TO.N,Net-(D10-PadA)*%
X-112615000Y-33655000D03*
%TD*%
%TO.P,D12,C*%
%TO.N,Net-(D12-PadC)*%
X-112615000Y-29845000D03*
D14*
%TO.P,D12,A*%
%TO.N,Net-(C1-Pad2)*%
X-102015000Y-29845000D03*
%TD*%
D15*
%TO.P,D13,C*%
%TO.N,Net-(C1-Pad1)*%
X-112615000Y-26035000D03*
D14*
%TO.P,D13,A*%
%TO.N,Net-(D12-PadC)*%
X-102015000Y-26035000D03*
%TD*%
D16*
%TO.P,J1,2*%
%TO.N,Net-(J1-Pad2)*%
X-103720000Y-41275000D03*
%TO.P,J1,1*%
%TO.N,Net-(C1-Pad2)*%
%TA.AperFunction,ComponentPad*%
G36*
G01*
X-93520000Y-39775000D02*
X-93520000Y-42775000D01*
G75*
G02*
X-95020000Y-44275000I-1500000J0D01*
G01*
X-98020000Y-44275000D01*
G75*
G02*
X-99520000Y-42775000I0J1500000D01*
G01*
X-99520000Y-39775000D01*
G75*
G02*
X-98020000Y-38275000I1500000J0D01*
G01*
X-95020000Y-38275000D01*
G75*
G02*
X-93520000Y-39775000I0J-1500000D01*
G01*
G37*
%TD.AperFunction*%
%TD*%
D17*
%TO.P,J2,1*%
%TO.N,Net-(C1-Pad2)*%
X-103505000Y8255000D03*
D18*
%TO.P,J2,2*%
%TO.N,Net-(C4-Pad1)*%
X-100965000Y8255000D03*
%TO.P,J2,3*%
%TO.N,Net-(J2-Pad3)*%
X-98425000Y8255000D03*
%TD*%
D19*
%TO.P,J3,1*%
%TO.N,Net-(D3-PadA)*%
X-108585000Y-16510000D03*
D20*
%TO.P,J3,2*%
%TO.N,Net-(D7-PadA)*%
X-108585000Y-11430000D03*
%TD*%
%TO.P,J4,2*%
%TO.N,Net-(D12-PadC)*%
X-68580000Y-16510000D03*
D19*
%TO.P,J4,1*%
%TO.N,Net-(D10-PadA)*%
X-68580000Y-11430000D03*
%TD*%
D17*
%TO.P,J5,1*%
%TO.N,Net-(J5-Pad1)*%
X-65405000Y7620000D03*
D18*
%TO.P,J5,2*%
%TO.N,Net-(J5-Pad2)*%
X-65405000Y5080000D03*
%TO.P,J5,3*%
%TO.N,Net-(J5-Pad3)*%
X-65405000Y2540000D03*
%TO.P,J5,4*%
%TO.N,Net-(J5-Pad4)*%
X-65405000Y0D03*
%TO.P,J5,5*%
%TO.N,Net-(C1-Pad2)*%
X-65405000Y-2540000D03*
%TD*%
D21*
%TO.P,R1,2*%
%TO.N,Net-(R1-Pad2)*%
X-100330000Y2540000D03*
D11*
%TO.P,R1,1*%
%TO.N,Net-(C3-Pad1)*%
X-100330000Y-5080000D03*
%TD*%
%TO.P,R2,1*%
%TO.N,Net-(R2-Pad1)*%
X-70485000Y1270000D03*
D21*
%TO.P,R2,2*%
%TO.N,Net-(C1-Pad2)*%
X-70485000Y-6350000D03*
%TD*%
D22*
%TO.P,S1,1*%
%TO.N,Net-(J1-Pad2)*%
X-71045000Y-44795000D03*
D23*
%TO.P,S1,3*%
%TO.N,Net-(C1-Pad1)*%
X-77545000Y-44795000D03*
%TO.P,S1,2*%
%TO.N,Net-(S1-Pad2)*%
X-71045000Y-40295000D03*
%TO.P,S1,4*%
%TO.N,Net-(S1-Pad4)*%
X-77545000Y-40295000D03*
%TD*%
D24*
%TO.P,U1,2*%
%TO.N,Net-(C3-Pad1)*%
X-106705000Y-3175000D03*
D25*
X-113005000Y-3175000D03*
%TO.P,U1,3*%
%TO.N,Net-(C1-Pad1)*%
X-113005000Y-5475000D03*
%TO.P,U1,1*%
%TO.N,Net-(C1-Pad2)*%
X-113005000Y-875000D03*
%TD*%
D26*
%TO.P,U2,1*%
%TO.N,Net-(C1-Pad1)*%
X-83820000Y-41275000D03*
D27*
%TO.P,U2,2*%
%TO.N,Net-(C1-Pad2)*%
X-86360000Y-41275000D03*
%TO.P,U2,3*%
%TO.N,Net-(C4-Pad1)*%
X-88900000Y-41275000D03*
%TD*%
D10*
%TO.P,U3,1*%
%TO.N,Net-(U3-Pad1)*%
X-82550000Y-33655000D03*
D21*
%TO.P,U3,9*%
%TO.N,Net-(U3-Pad9)*%
X-90170000Y-15875000D03*
%TO.P,U3,2*%
%TO.N,Net-(U3-Pad2)*%
X-82550000Y-31115000D03*
%TO.P,U3,10*%
%TO.N,Net-(J5-Pad3)*%
X-90170000Y-18415000D03*
%TO.P,U3,3*%
%TO.N,Net-(D3-PadA)*%
X-82550000Y-28575000D03*
%TO.P,U3,11*%
%TO.N,Net-(D10-PadA)*%
X-90170000Y-20955000D03*
%TO.P,U3,4*%
%TO.N,Net-(C1-Pad2)*%
X-82550000Y-26035000D03*
%TO.P,U3,12*%
X-90170000Y-23495000D03*
%TO.P,U3,5*%
X-82550000Y-23495000D03*
%TO.P,U3,13*%
X-90170000Y-26035000D03*
%TO.P,U3,6*%
%TO.N,Net-(D7-PadA)*%
X-82550000Y-20955000D03*
%TO.P,U3,14*%
%TO.N,Net-(D12-PadC)*%
X-90170000Y-28575000D03*
%TO.P,U3,7*%
%TO.N,Net-(U3-Pad7)*%
X-82550000Y-18415000D03*
%TO.P,U3,15*%
%TO.N,Net-(U3-Pad15)*%
X-90170000Y-31115000D03*
%TO.P,U3,8*%
%TO.N,Net-(C1-Pad1)*%
X-82550000Y-15875000D03*
%TO.P,U3,16*%
%TO.N,Net-(C4-Pad1)*%
X-90170000Y-33655000D03*
%TD*%
D28*
%TO.P,U4,22*%
%TO.N,Net-(J5-Pad1)*%
X-78760000Y4135000D03*
%TO.P,U4,21*%
%TO.N,Net-(J5-Pad2)*%
X-78760000Y2135000D03*
%TO.P,U4,20*%
%TO.N,Net-(U3-Pad2)*%
X-78760000Y135000D03*
%TO.P,U4,19*%
%TO.N,Net-(U3-Pad7)*%
X-78760000Y-1865000D03*
%TO.P,U4,18*%
%TO.N,Net-(J5-Pad3)*%
X-78760000Y-3865000D03*
%TO.P,U4,17*%
%TO.N,Net-(U3-Pad15)*%
X-78760000Y-5865000D03*
%TO.P,U4,16*%
%TO.N,Net-(R2-Pad1)*%
X-78760000Y-7865000D03*
%TO.P,U4,15*%
%TO.N,Net-(C1-Pad2)*%
X-78760000Y-9865000D03*
D29*
%TO.P,U4,14*%
%TO.N,Net-(U4-Pad14)*%
X-81360000Y-11365000D03*
%TO.P,U4,13*%
%TO.N,Net-(U4-Pad13)*%
X-83360000Y-11365000D03*
%TO.P,U4,12*%
%TO.N,Net-(U4-Pad12)*%
X-85360000Y-11365000D03*
%TO.P,U4,11*%
%TO.N,Net-(U4-Pad11)*%
X-87360000Y-11365000D03*
%TO.P,U4,10*%
%TO.N,Net-(U4-Pad10)*%
X-89360000Y-11365000D03*
%TO.P,U4,9*%
%TO.N,Net-(U4-Pad9)*%
X-91360000Y-11365000D03*
D28*
%TO.P,U4,8*%
%TO.N,Net-(C3-Pad1)*%
X-93960000Y-9865000D03*
%TO.P,U4,7*%
%TO.N,Net-(U3-Pad9)*%
X-93960000Y-7865000D03*
%TO.P,U4,6*%
%TO.N,Net-(U3-Pad1)*%
X-93960000Y-5865000D03*
%TO.P,U4,5*%
%TO.N,Net-(J2-Pad3)*%
X-93960000Y-3865000D03*
%TO.P,U4,4*%
%TO.N,Net-(U4-Pad4)*%
X-93960000Y-1865000D03*
%TO.P,U4,3*%
%TO.N,Net-(R1-Pad2)*%
X-93960000Y135000D03*
%TO.P,U4,2*%
%TO.N,Net-(U4-Pad2)*%
X-93960000Y2135000D03*
%TO.P,U4,1*%
%TO.N,Net-(J5-Pad4)*%
X-93960000Y4135000D03*
%TD*%
D30*
%TO.N,Net-(C1-Pad1)*%
X-113005000Y-6550300D02*
X-112615000Y-6940300D01*
X-112615000Y-6940300D02*
X-112615000Y-21074700D01*
X-77545000Y-44795000D02*
X-81065000Y-41275000D01*
X-81065000Y-41275000D02*
X-82542200Y-41275000D01*
X-75785000Y-22860000D02*
X-75785000Y-26670000D01*
X-83820000Y-41275000D02*
X-82542200Y-41275000D01*
X-113005000Y-5475000D02*
X-113005000Y-6550300D01*
X-112615000Y-22225000D02*
X-112615000Y-21074700D01*
X-75785000Y-22860000D02*
X-75785000Y-21709700D01*
X-75785000Y-21709700D02*
X-78740000Y-18754700D01*
X-78740000Y-18754700D02*
X-78740000Y-17145000D01*
X-112615000Y-26035000D02*
X-112615000Y-22225000D01*
%TO.N,Net-(C1-Pad2)*%
X-76240000Y-9865000D02*
X-75125300Y-9865000D01*
X-75125300Y-9865000D02*
X-71610300Y-6350000D01*
X-77297300Y-9865000D02*
X-76240000Y-9865000D01*
X-76240000Y-9865000D02*
X-76240000Y-17145000D01*
X-70485000Y-6350000D02*
X-71610300Y-6350000D01*
X-78760000Y-9865000D02*
X-77297300Y-9865000D01*
X-65185000Y-30480000D02*
X-64023800Y-29318800D01*
X-64023800Y-29318800D02*
X-64023800Y-22367100D01*
X-64023800Y-22367100D02*
X-65337700Y-21053200D01*
X-65337700Y-21053200D02*
X-72331800Y-21053200D01*
X-72331800Y-21053200D02*
X-76240000Y-17145000D01*
X-65185000Y-30480000D02*
X-65185000Y-34290000D01*
X-96520000Y-33655000D02*
X-102015000Y-33655000D01*
X-94655000Y-32385000D02*
X-95925000Y-33655000D01*
X-95925000Y-33655000D02*
X-96520000Y-33655000D01*
X-96520000Y-41275000D02*
X-96520000Y-33655000D01*
X-90170000Y-23495000D02*
X-91295300Y-23495000D01*
X-91295300Y-23495000D02*
X-91295300Y-22409700D01*
X-91295300Y-22409700D02*
X-95290000Y-18415000D01*
X-90170000Y-26035000D02*
X-90170000Y-23495000D01*
X-94655000Y-32385000D02*
X-94655000Y-26670000D01*
X-113005000Y-875000D02*
X-113005000Y200300D01*
X-113005000Y200300D02*
X-113030000Y225300D01*
X-113030000Y225300D02*
X-113030000Y3810000D01*
X-82550000Y-23495000D02*
X-82550000Y-26035000D01*
X-79865001Y-16084999D02*
X-79865001Y-18023011D01*
X-77679999Y-16019999D02*
X-79800001Y-16019999D01*
X-71989999Y-21709999D02*
X-77679999Y-16019999D01*
X-79800001Y-16019999D02*
X-79865001Y-16084999D01*
X-96520000Y-41275000D02*
X-96520000Y-35799998D01*
X-96520000Y-35799998D02*
X-91295001Y-30574999D01*
X-91295001Y-30574999D02*
X-91295001Y-31655001D01*
X-91295001Y-31655001D02*
X-90710001Y-32240001D01*
X-74634999Y-34012001D02*
X-64034999Y-23412001D01*
X-90710001Y-32240001D02*
X-89629999Y-32240001D01*
X-86429999Y-35440001D02*
X-74699999Y-35440001D01*
X-64632999Y-21709999D02*
X-71989999Y-21709999D01*
X-64034999Y-22307999D02*
X-64632999Y-21709999D01*
X-89629999Y-32240001D02*
X-86429999Y-35440001D01*
X-74699999Y-35440001D02*
X-74634999Y-35375001D01*
X-74634999Y-35375001D02*
X-74634999Y-34012001D01*
X-64034999Y-23412001D02*
X-64034999Y-22307999D01*
%TO.N,Net-(C3-Pad1)*%
X-110490000Y-1985300D02*
X-110490000Y3810000D01*
X-111792300Y-3175000D02*
X-111679700Y-3175000D01*
X-111679700Y-3175000D02*
X-110490000Y-1985300D01*
X-106705000Y-3537400D02*
X-108937900Y-3537400D01*
X-108937900Y-3537400D02*
X-110490000Y-1985300D01*
X-113005000Y-3175000D02*
X-111792300Y-3175000D01*
X-106705000Y-3175000D02*
X-106705000Y-3537400D01*
X-95540100Y-9869900D02*
X-96664600Y-10994400D01*
X-96664600Y-10994400D02*
X-96664600Y-25054300D01*
X-96664600Y-25054300D02*
X-97155000Y-25544700D01*
X-95422700Y-9865000D02*
X-95535200Y-9865000D01*
X-95535200Y-9865000D02*
X-95540100Y-9869900D01*
X-95540100Y-9869900D02*
X-100330000Y-5080000D01*
X-97155000Y-26670000D02*
X-97155000Y-25544700D01*
X-93960000Y-9865000D02*
X-95422700Y-9865000D01*
%TO.N,Net-(C4-Pad1)*%
X-100965000Y8255000D02*
X-100965000Y7079700D01*
X-97155000Y-32385000D02*
X-97155000Y-31259700D01*
X-97155000Y-31259700D02*
X-100026100Y-28388600D01*
X-100026100Y-28388600D02*
X-100026100Y-7159600D01*
X-100026100Y-7159600D02*
X-101476700Y-5709000D01*
X-101476700Y-5709000D02*
X-101476700Y6568000D01*
X-101476700Y6568000D02*
X-100965000Y7079700D01*
X-90170000Y-33655000D02*
X-90170000Y-34780300D01*
X-90170000Y-34780300D02*
X-88900000Y-36050300D01*
X-88900000Y-36050300D02*
X-88900000Y-41275000D01*
%TO.N,Net-(D3-PadA)*%
X-75785000Y-30480000D02*
X-72805000Y-30480000D01*
X-72805000Y-30480000D02*
X-65185000Y-22860000D01*
%TO.N,Net-(D7-PadA)*%
X-75785000Y-34290000D02*
X-75785000Y-33139700D01*
X-82550000Y-20955000D02*
X-82550000Y-22080300D01*
X-82550000Y-22080300D02*
X-82268700Y-22080300D01*
X-82268700Y-22080300D02*
X-76935300Y-27413700D01*
X-76935300Y-27413700D02*
X-76935300Y-31989400D01*
X-76935300Y-31989400D02*
X-75785000Y-33139700D01*
%TO.N,Net-(D10-PadA)*%
X-112615000Y-33655000D02*
X-112615000Y-32504700D01*
X-102015000Y-22225000D02*
X-106975400Y-27185400D01*
X-106975400Y-27185400D02*
X-112085100Y-27185400D01*
X-112085100Y-27185400D02*
X-113765300Y-28865600D01*
X-113765300Y-28865600D02*
X-113765300Y-31354400D01*
X-113765300Y-31354400D02*
X-112615000Y-32504700D01*
%TO.N,Net-(D12-PadC)*%
X-102015000Y-26035000D02*
X-105825000Y-29845000D01*
X-105825000Y-29845000D02*
X-112615000Y-29845000D01*
%TO.N,Net-(J2-Pad3)*%
X-93960000Y-3865000D02*
X-92384700Y-3865000D01*
X-92384700Y-3865000D02*
X-92384700Y769800D01*
X-92384700Y769800D02*
X-92575300Y960400D01*
X-92575300Y960400D02*
X-95011600Y960400D01*
X-95011600Y960400D02*
X-98425000Y4373800D01*
X-98425000Y4373800D02*
X-98425000Y8255000D01*
%TO.N,Net-(J5-Pad1)*%
X-78760000Y4135000D02*
X-77184700Y4135000D01*
X-77184700Y4135000D02*
X-73699700Y7620000D01*
X-73699700Y7620000D02*
X-65405000Y7620000D01*
%TO.N,Net-(J5-Pad2)*%
X-78760000Y2135000D02*
X-77184700Y2135000D01*
X-77184700Y2135000D02*
X-74239700Y5080000D01*
X-74239700Y5080000D02*
X-65405000Y5080000D01*
%TO.N,Net-(J5-Pad3)*%
X-78760000Y-3865000D02*
X-77184700Y-3865000D01*
X-77184700Y-3865000D02*
X-77184700Y-3747300D01*
X-77184700Y-3747300D02*
X-70897400Y2540000D01*
X-70897400Y2540000D02*
X-65405000Y2540000D01*
%TO.N,Net-(J5-Pad4)*%
X-65405000Y0D02*
X-65405000Y1175300D01*
X-93960000Y4135000D02*
X-92384700Y4135000D01*
X-92384700Y4135000D02*
X-89559300Y1309600D01*
X-89559300Y1309600D02*
X-74495100Y1309600D01*
X-74495100Y1309600D02*
X-72056000Y3748700D01*
X-72056000Y3748700D02*
X-64951300Y3748700D01*
X-64951300Y3748700D02*
X-64229700Y3027100D01*
X-64229700Y3027100D02*
X-64229700Y1983200D01*
X-64229700Y1983200D02*
X-65037600Y1175300D01*
X-65037600Y1175300D02*
X-65405000Y1175300D01*
%TO.N,Net-(R1-Pad2)*%
X-100330000Y2540000D02*
X-99204700Y2540000D01*
X-93960000Y135000D02*
X-96799700Y135000D01*
X-96799700Y135000D02*
X-99204700Y2540000D01*
%TO.N,Net-(R2-Pad1)*%
X-78760000Y-7865000D02*
X-77184700Y-7865000D01*
X-77184700Y-7865000D02*
X-77184700Y-5429700D01*
X-77184700Y-5429700D02*
X-70485000Y1270000D01*
%TO.N,Net-(U3-Pad1)*%
X-82550000Y-33655000D02*
X-82550000Y-32529700D01*
X-93960000Y-5865000D02*
X-92384700Y-5865000D01*
X-92384700Y-5865000D02*
X-90534600Y-7715100D01*
X-90534600Y-7715100D02*
X-90534600Y-12443600D01*
X-90534600Y-12443600D02*
X-86730700Y-16247500D01*
X-86730700Y-16247500D02*
X-86730700Y-28630300D01*
X-86730700Y-28630300D02*
X-82831300Y-32529700D01*
X-82831300Y-32529700D02*
X-82550000Y-32529700D01*
%TO.N,Net-(U3-Pad9)*%
X-90170000Y-15875000D02*
X-90170000Y-14749700D01*
X-93960000Y-7865000D02*
X-92384700Y-7865000D01*
X-92384700Y-7865000D02*
X-92384700Y-12535000D01*
X-92384700Y-12535000D02*
X-90170000Y-14749700D01*
%TO.N,Net-(U3-Pad2)*%
X-82550000Y-31115000D02*
X-82550000Y-29989700D01*
X-78760000Y135000D02*
X-80335300Y135000D01*
X-80335300Y135000D02*
X-84185400Y-3715100D01*
X-84185400Y-3715100D02*
X-84185400Y-28635600D01*
X-84185400Y-28635600D02*
X-82831300Y-29989700D01*
X-82831300Y-29989700D02*
X-82550000Y-29989700D01*
%TO.N,Net-(U3-Pad7)*%
X-82550000Y-18415000D02*
X-82550000Y-17289700D01*
X-78760000Y-1865000D02*
X-80335300Y-1865000D01*
X-80335300Y-1865000D02*
X-82185400Y-3715100D01*
X-82185400Y-3715100D02*
X-82185400Y-14622800D01*
X-82185400Y-14622800D02*
X-81424700Y-15383500D01*
X-81424700Y-15383500D02*
X-81424700Y-16445800D01*
X-81424700Y-16445800D02*
X-82268600Y-17289700D01*
X-82268600Y-17289700D02*
X-82550000Y-17289700D01*
%TO.N,Net-(U3-Pad15)*%
X-90170000Y-31115000D02*
X-89044700Y-31115000D01*
X-78760000Y-5865000D02*
X-80335300Y-5865000D01*
X-80335300Y-5865000D02*
X-80335300Y-17856900D01*
X-80335300Y-17856900D02*
X-82163400Y-19685000D01*
X-82163400Y-19685000D02*
X-82919500Y-19685000D01*
X-82919500Y-19685000D02*
X-83734800Y-20500300D01*
X-83734800Y-20500300D02*
X-83734800Y-26508400D01*
X-83734800Y-26508400D02*
X-83082800Y-27160400D01*
X-83082800Y-27160400D02*
X-82321100Y-27160400D01*
X-82321100Y-27160400D02*
X-81424600Y-28056900D01*
X-81424600Y-28056900D02*
X-81424600Y-34639700D01*
X-81424600Y-34639700D02*
X-81565300Y-34780400D01*
X-81565300Y-34780400D02*
X-85379300Y-34780400D01*
X-85379300Y-34780400D02*
X-89044700Y-31115000D01*
%TD*%
M02*
