%TF.GenerationSoftware,KiCad,Pcbnew,(5.1.10)-1*%
%TF.CreationDate,2021-11-08T05:29:08+05:30*%
%TF.ProjectId,Flipboard Final,466c6970-626f-4617-9264-2046696e616c,rev?*%
%TF.SameCoordinates,Original*%
%TF.FileFunction,Legend,Bot*%
%TF.FilePolarity,Positive*%
%FSLAX46Y46*%
G04 Gerber Fmt 4.6, Leading zero omitted, Abs format (unit mm)*
G04 Created by KiCad (PCBNEW (5.1.10)-1) date 2021-11-08 05:29:08*
%MOMM*%
%LPD*%
G01*
G04 APERTURE LIST*
%ADD10C,0.150000*%
G04 APERTURE END LIST*
D10*
X-77420000Y772142D02*
X-77020000Y1343571D01*
X-76734285Y772142D02*
X-76734285Y1972142D01*
X-77191428Y1972142D01*
X-77305714Y1915000D01*
X-77362857Y1857857D01*
X-77420000Y1743571D01*
X-77420000Y1572142D01*
X-77362857Y1457857D01*
X-77305714Y1400714D01*
X-77191428Y1343571D01*
X-76734285Y1343571D01*
X-78105714Y772142D02*
X-77991428Y829285D01*
X-77934285Y886428D01*
X-77877142Y1000714D01*
X-77877142Y1343571D01*
X-77934285Y1457857D01*
X-77991428Y1515000D01*
X-78105714Y1572142D01*
X-78277142Y1572142D01*
X-78391428Y1515000D01*
X-78448571Y1457857D01*
X-78505714Y1343571D01*
X-78505714Y1000714D01*
X-78448571Y886428D01*
X-78391428Y829285D01*
X-78277142Y772142D01*
X-78105714Y772142D01*
X-79020000Y772142D02*
X-79020000Y1972142D01*
X-79020000Y1515000D02*
X-79134285Y1572142D01*
X-79362857Y1572142D01*
X-79477142Y1515000D01*
X-79534285Y1457857D01*
X-79591428Y1343571D01*
X-79591428Y1000714D01*
X-79534285Y886428D01*
X-79477142Y829285D01*
X-79362857Y772142D01*
X-79134285Y772142D01*
X-79020000Y829285D01*
X-80277142Y772142D02*
X-80162857Y829285D01*
X-80105714Y886428D01*
X-80048571Y1000714D01*
X-80048571Y1343571D01*
X-80105714Y1457857D01*
X-80162857Y1515000D01*
X-80277142Y1572142D01*
X-80448571Y1572142D01*
X-80562857Y1515000D01*
X-80620000Y1457857D01*
X-80677142Y1343571D01*
X-80677142Y1000714D01*
X-80620000Y886428D01*
X-80562857Y829285D01*
X-80448571Y772142D01*
X-80277142Y772142D01*
X-82105714Y1229285D02*
X-83020000Y1229285D01*
X-84448571Y829285D02*
X-84620000Y772142D01*
X-84905714Y772142D01*
X-85020000Y829285D01*
X-85077142Y886428D01*
X-85134285Y1000714D01*
X-85134285Y1115000D01*
X-85077142Y1229285D01*
X-85020000Y1286428D01*
X-84905714Y1343571D01*
X-84677142Y1400714D01*
X-84562857Y1457857D01*
X-84505714Y1515000D01*
X-84448571Y1629285D01*
X-84448571Y1743571D01*
X-84505714Y1857857D01*
X-84562857Y1915000D01*
X-84677142Y1972142D01*
X-84962857Y1972142D01*
X-85134285Y1915000D01*
X-86162857Y772142D02*
X-86162857Y1400714D01*
X-86105714Y1515000D01*
X-85991428Y1572142D01*
X-85762857Y1572142D01*
X-85648571Y1515000D01*
X-86162857Y829285D02*
X-86048571Y772142D01*
X-85762857Y772142D01*
X-85648571Y829285D01*
X-85591428Y943571D01*
X-85591428Y1057857D01*
X-85648571Y1172142D01*
X-85762857Y1229285D01*
X-86048571Y1229285D01*
X-86162857Y1286428D01*
X-86734285Y1572142D02*
X-86734285Y372142D01*
X-86734285Y1515000D02*
X-86848571Y1572142D01*
X-87077142Y1572142D01*
X-87191428Y1515000D01*
X-87248571Y1457857D01*
X-87305714Y1343571D01*
X-87305714Y1000714D01*
X-87248571Y886428D01*
X-87191428Y829285D01*
X-87077142Y772142D01*
X-86848571Y772142D01*
X-86734285Y829285D01*
X-87819999Y772142D02*
X-87819999Y1572142D01*
X-87819999Y1972142D02*
X-87762857Y1915000D01*
X-87819999Y1857857D01*
X-87877142Y1915000D01*
X-87819999Y1972142D01*
X-87819999Y1857857D01*
X-88848571Y829285D02*
X-88734285Y772142D01*
X-88505714Y772142D01*
X-88391428Y829285D01*
X-88334285Y943571D01*
X-88334285Y1400714D01*
X-88391428Y1515000D01*
X-88505714Y1572142D01*
X-88734285Y1572142D01*
X-88848571Y1515000D01*
X-88905714Y1400714D01*
X-88905714Y1286428D01*
X-88334285Y1172142D01*
X-89419999Y1572142D02*
X-89419999Y772142D01*
X-89419999Y1457857D02*
X-89477142Y1515000D01*
X-89591428Y1572142D01*
X-89762857Y1572142D01*
X-89877142Y1515000D01*
X-89934285Y1400714D01*
X-89934285Y772142D01*
X-90448571Y829285D02*
X-90562857Y772142D01*
X-90791428Y772142D01*
X-90905714Y829285D01*
X-90962857Y943571D01*
X-90962857Y1000714D01*
X-90905714Y1115000D01*
X-90791428Y1172142D01*
X-90619999Y1172142D01*
X-90505714Y1229285D01*
X-90448571Y1343571D01*
X-90448571Y1400714D01*
X-90505714Y1515000D01*
X-90619999Y1572142D01*
X-90791428Y1572142D01*
X-90905714Y1515000D01*
X-79477142Y-1177857D02*
X-79477142Y22142D01*
X-80048571Y-1177857D02*
X-80048571Y22142D01*
X-80448571Y22142D02*
X-81134285Y22142D01*
X-80791428Y-1177857D02*
X-80791428Y22142D01*
X-82791428Y22142D02*
X-82791428Y-835000D01*
X-82734285Y-1006428D01*
X-82620000Y-1120714D01*
X-82448571Y-1177857D01*
X-82334285Y-1177857D01*
X-83877142Y-1177857D02*
X-83877142Y-549285D01*
X-83820000Y-435000D01*
X-83705714Y-377857D01*
X-83477142Y-377857D01*
X-83362857Y-435000D01*
X-83877142Y-1120714D02*
X-83762857Y-1177857D01*
X-83477142Y-1177857D01*
X-83362857Y-1120714D01*
X-83305714Y-1006428D01*
X-83305714Y-892142D01*
X-83362857Y-777857D01*
X-83477142Y-720714D01*
X-83762857Y-720714D01*
X-83877142Y-663571D01*
X-84448571Y-1177857D02*
X-84448571Y-377857D01*
X-84448571Y-492142D02*
X-84505714Y-435000D01*
X-84620000Y-377857D01*
X-84791428Y-377857D01*
X-84905714Y-435000D01*
X-84962857Y-549285D01*
X-84962857Y-1177857D01*
X-84962857Y-549285D02*
X-85020000Y-435000D01*
X-85134285Y-377857D01*
X-85305714Y-377857D01*
X-85420000Y-435000D01*
X-85477142Y-549285D01*
X-85477142Y-1177857D01*
X-86048571Y-1177857D02*
X-86048571Y-377857D01*
X-86048571Y-492142D02*
X-86105714Y-435000D01*
X-86220000Y-377857D01*
X-86391428Y-377857D01*
X-86505714Y-435000D01*
X-86562857Y-549285D01*
X-86562857Y-1177857D01*
X-86562857Y-549285D02*
X-86620000Y-435000D01*
X-86734285Y-377857D01*
X-86905714Y-377857D01*
X-87020000Y-435000D01*
X-87077142Y-549285D01*
X-87077142Y-1177857D01*
X-88162857Y-377857D02*
X-88162857Y-1177857D01*
X-87648571Y-377857D02*
X-87648571Y-1006428D01*
X-87705714Y-1120714D01*
X-87820000Y-1177857D01*
X-87991428Y-1177857D01*
X-88105714Y-1120714D01*
X-88162857Y-1063571D01*
X-74020000Y-3013571D02*
X-73962857Y-3070714D01*
X-73791428Y-3127857D01*
X-73677142Y-3127857D01*
X-73505714Y-3070714D01*
X-73391428Y-2956428D01*
X-73334285Y-2842142D01*
X-73277142Y-2613571D01*
X-73277142Y-2442142D01*
X-73334285Y-2213571D01*
X-73391428Y-2099285D01*
X-73505714Y-1985000D01*
X-73677142Y-1927857D01*
X-73791428Y-1927857D01*
X-73962857Y-1985000D01*
X-74020000Y-2042142D01*
X-74705714Y-3127857D02*
X-74591428Y-3070714D01*
X-74534285Y-3013571D01*
X-74477142Y-2899285D01*
X-74477142Y-2556428D01*
X-74534285Y-2442142D01*
X-74591428Y-2385000D01*
X-74705714Y-2327857D01*
X-74877142Y-2327857D01*
X-74991428Y-2385000D01*
X-75048571Y-2442142D01*
X-75105714Y-2556428D01*
X-75105714Y-2899285D01*
X-75048571Y-3013571D01*
X-74991428Y-3070714D01*
X-74877142Y-3127857D01*
X-74705714Y-3127857D01*
X-75620000Y-2327857D02*
X-75620000Y-3527857D01*
X-75620000Y-2385000D02*
X-75734285Y-2327857D01*
X-75962857Y-2327857D01*
X-76077142Y-2385000D01*
X-76134285Y-2442142D01*
X-76191428Y-2556428D01*
X-76191428Y-2899285D01*
X-76134285Y-3013571D01*
X-76077142Y-3070714D01*
X-75962857Y-3127857D01*
X-75734285Y-3127857D01*
X-75620000Y-3070714D01*
X-76591428Y-2327857D02*
X-76877142Y-3127857D01*
X-77162857Y-2327857D02*
X-76877142Y-3127857D01*
X-76762857Y-3413571D01*
X-76705714Y-3470714D01*
X-76591428Y-3527857D01*
X-77620000Y-3127857D02*
X-77620000Y-2327857D01*
X-77620000Y-2556428D02*
X-77677142Y-2442142D01*
X-77734285Y-2385000D01*
X-77848571Y-2327857D01*
X-77962857Y-2327857D01*
X-78362857Y-3127857D02*
X-78362857Y-2327857D01*
X-78362857Y-1927857D02*
X-78305714Y-1985000D01*
X-78362857Y-2042142D01*
X-78420000Y-1985000D01*
X-78362857Y-1927857D01*
X-78362857Y-2042142D01*
X-79448571Y-2327857D02*
X-79448571Y-3299285D01*
X-79391428Y-3413571D01*
X-79334285Y-3470714D01*
X-79220000Y-3527857D01*
X-79048571Y-3527857D01*
X-78934285Y-3470714D01*
X-79448571Y-3070714D02*
X-79334285Y-3127857D01*
X-79105714Y-3127857D01*
X-78991428Y-3070714D01*
X-78934285Y-3013571D01*
X-78877142Y-2899285D01*
X-78877142Y-2556428D01*
X-78934285Y-2442142D01*
X-78991428Y-2385000D01*
X-79105714Y-2327857D01*
X-79334285Y-2327857D01*
X-79448571Y-2385000D01*
X-80020000Y-3127857D02*
X-80020000Y-1927857D01*
X-80534285Y-3127857D02*
X-80534285Y-2499285D01*
X-80477142Y-2385000D01*
X-80362857Y-2327857D01*
X-80191428Y-2327857D01*
X-80077142Y-2385000D01*
X-80020000Y-2442142D01*
X-80934285Y-2327857D02*
X-81391428Y-2327857D01*
X-81105714Y-1927857D02*
X-81105714Y-2956428D01*
X-81162857Y-3070714D01*
X-81277142Y-3127857D01*
X-81391428Y-3127857D01*
X-83048571Y-3585000D02*
X-82991428Y-3527857D01*
X-82877142Y-3356428D01*
X-82820000Y-3242142D01*
X-82762857Y-3070714D01*
X-82705714Y-2785000D01*
X-82705714Y-2556428D01*
X-82762857Y-2270714D01*
X-82820000Y-2099285D01*
X-82877142Y-1985000D01*
X-82991428Y-1813571D01*
X-83048571Y-1756428D01*
X-84191428Y-3013571D02*
X-84134285Y-3070714D01*
X-83962857Y-3127857D01*
X-83848571Y-3127857D01*
X-83677142Y-3070714D01*
X-83562857Y-2956428D01*
X-83505714Y-2842142D01*
X-83448571Y-2613571D01*
X-83448571Y-2442142D01*
X-83505714Y-2213571D01*
X-83562857Y-2099285D01*
X-83677142Y-1985000D01*
X-83848571Y-1927857D01*
X-83962857Y-1927857D01*
X-84134285Y-1985000D01*
X-84191428Y-2042142D01*
X-84591428Y-3585000D02*
X-84648571Y-3527857D01*
X-84762857Y-3356428D01*
X-84820000Y-3242142D01*
X-84877142Y-3070714D01*
X-84934285Y-2785000D01*
X-84934285Y-2556428D01*
X-84877142Y-2270714D01*
X-84820000Y-2099285D01*
X-84762857Y-1985000D01*
X-84648571Y-1813571D01*
X-84591428Y-1756428D01*
X-86362857Y-2042142D02*
X-86420000Y-1985000D01*
X-86534285Y-1927857D01*
X-86820000Y-1927857D01*
X-86934285Y-1985000D01*
X-86991428Y-2042142D01*
X-87048571Y-2156428D01*
X-87048571Y-2270714D01*
X-86991428Y-2442142D01*
X-86305714Y-3127857D01*
X-87048571Y-3127857D01*
X-87791428Y-1927857D02*
X-87905714Y-1927857D01*
X-88020000Y-1985000D01*
X-88077142Y-2042142D01*
X-88134285Y-2156428D01*
X-88191428Y-2385000D01*
X-88191428Y-2670714D01*
X-88134285Y-2899285D01*
X-88077142Y-3013571D01*
X-88020000Y-3070714D01*
X-87905714Y-3127857D01*
X-87791428Y-3127857D01*
X-87677142Y-3070714D01*
X-87620000Y-3013571D01*
X-87562857Y-2899285D01*
X-87505714Y-2670714D01*
X-87505714Y-2385000D01*
X-87562857Y-2156428D01*
X-87620000Y-2042142D01*
X-87677142Y-1985000D01*
X-87791428Y-1927857D01*
X-88648571Y-2042142D02*
X-88705714Y-1985000D01*
X-88820000Y-1927857D01*
X-89105714Y-1927857D01*
X-89220000Y-1985000D01*
X-89277142Y-2042142D01*
X-89334285Y-2156428D01*
X-89334285Y-2270714D01*
X-89277142Y-2442142D01*
X-88591428Y-3127857D01*
X-89334285Y-3127857D01*
X-90477142Y-3127857D02*
X-89791428Y-3127857D01*
X-90134285Y-3127857D02*
X-90134285Y-1927857D01*
X-90020000Y-2099285D01*
X-89905714Y-2213571D01*
X-89791428Y-2270714D01*
X-92305714Y-2499285D02*
X-92477142Y-2556428D01*
X-92534285Y-2613571D01*
X-92591428Y-2727857D01*
X-92591428Y-2899285D01*
X-92534285Y-3013571D01*
X-92477142Y-3070714D01*
X-92362857Y-3127857D01*
X-91905714Y-3127857D01*
X-91905714Y-1927857D01*
X-92305714Y-1927857D01*
X-92420000Y-1985000D01*
X-92477142Y-2042142D01*
X-92534285Y-2156428D01*
X-92534285Y-2270714D01*
X-92477142Y-2385000D01*
X-92420000Y-2442142D01*
X-92305714Y-2499285D01*
X-91905714Y-2499285D01*
X-93277142Y-3127857D02*
X-93162857Y-3070714D01*
X-93105714Y-3013571D01*
X-93048571Y-2899285D01*
X-93048571Y-2556428D01*
X-93105714Y-2442142D01*
X-93162857Y-2385000D01*
X-93277142Y-2327857D01*
X-93448571Y-2327857D01*
X-93562857Y-2385000D01*
X-93620000Y-2442142D01*
X-93677142Y-2556428D01*
X-93677142Y-2899285D01*
X-93620000Y-3013571D01*
X-93562857Y-3070714D01*
X-93448571Y-3127857D01*
X-93277142Y-3127857D01*
X-94020000Y-2327857D02*
X-94477142Y-2327857D01*
X-94191428Y-1927857D02*
X-94191428Y-2956428D01*
X-94248571Y-3070714D01*
X-94362857Y-3127857D01*
X-94477142Y-3127857D01*
M02*
